M48
;Layer_Color=6321
;FILE_FORMAT=2:3
INCH,LZ
;TYPE=PLATED
T1F00S00C0.028
T2F00S00C0.035
T3F00S00C0.036
T4F00S00C0.040
%
T01
X00605Y00235
X0061Y00455
X0091Y00535
X01285Y00515
X0036Y0111
X0096Y01195
X00975Y00875
T02
X02285Y00085
Y00185
Y00285
Y00385
Y00485
Y00585
Y00685
Y00785
X01885Y008
Y007
X01785
Y006
X01885
Y005
Y004
X01785
Y005
X01535
Y006
Y007
X01435
Y006
Y005
Y004
X01535
Y008
X01435
X01785
X0111Y00365
X0101
X0091
X0081
Y00065
X0091
X0101
X0111
X0047Y0035
Y0045
Y0055
Y0065
Y0075
X0017
Y0065
Y0055
Y0045
Y0035
Y0085
Y0095
Y0105
Y0115
Y0125
X0047
Y0115
Y0105
Y0095
Y0085
X01785Y009
X01885
X02285Y00885
Y00985
Y01085
Y01185
Y01285
Y01385
T03
X0203Y00091
Y00191
X0215Y00385
Y00485
Y00585
X0193Y00191
Y00091
X0183
Y00191
X0173
Y00091
X0135Y00085
X0125
X0188Y01345
X0198
T04
X00715Y0067
Y0077
X00825
Y0067
X011
Y0077
X0121
Y0067
Y0087
Y0097
Y0107
X011
Y0097
Y0087
X00825
Y0097
Y0107
X00715
Y0097
Y0087
M30
