G04 Layer_Physical_Order=2*
G04 Layer_Color=11436288*
%FSLAX42Y42*%
%MOMM*%
G71*
G01*
G75*
%ADD13C,0.30*%
%ADD14C,0.40*%
%ADD15C,0.35*%
G04:AMPARAMS|DCode=16|XSize=1.52mm|YSize=2.03mm|CornerRadius=0.38mm|HoleSize=0mm|Usage=FLASHONLY|Rotation=0.000|XOffset=0mm|YOffset=0mm|HoleType=Round|Shape=RoundedRectangle|*
%AMROUNDEDRECTD16*
21,1,1.52,1.27,0,0,0.0*
21,1,0.76,2.03,0,0,0.0*
1,1,0.76,0.38,-0.64*
1,1,0.76,-0.38,-0.64*
1,1,0.76,-0.38,0.64*
1,1,0.76,0.38,0.64*
%
%ADD16ROUNDEDRECTD16*%
%ADD17R,1.52X2.03*%
G04:AMPARAMS|DCode=18|XSize=1.52mm|YSize=2mm|CornerRadius=0.38mm|HoleSize=0mm|Usage=FLASHONLY|Rotation=90.000|XOffset=0mm|YOffset=0mm|HoleType=Round|Shape=RoundedRectangle|*
%AMROUNDEDRECTD18*
21,1,1.52,1.24,0,0,90.0*
21,1,0.76,2.00,0,0,90.0*
1,1,0.76,0.62,0.38*
1,1,0.76,0.62,-0.38*
1,1,0.76,-0.62,-0.38*
1,1,0.76,-0.62,0.38*
%
%ADD18ROUNDEDRECTD18*%
%ADD19R,2.00X1.52*%
%ADD20O,2.00X1.50*%
%ADD21R,2.00X1.50*%
G04:AMPARAMS|DCode=22|XSize=1.52mm|YSize=2.03mm|CornerRadius=0.38mm|HoleSize=0mm|Usage=FLASHONLY|Rotation=270.000|XOffset=0mm|YOffset=0mm|HoleType=Round|Shape=RoundedRectangle|*
%AMROUNDEDRECTD22*
21,1,1.52,1.27,0,0,270.0*
21,1,0.76,2.03,0,0,270.0*
1,1,0.76,-0.64,-0.38*
1,1,0.76,-0.64,0.38*
1,1,0.76,0.64,0.38*
1,1,0.76,0.64,-0.38*
%
%ADD22ROUNDEDRECTD22*%
%ADD23R,2.03X1.52*%
%ADD24O,2.00X1.52*%
%ADD25R,2.00X1.52*%
%ADD26O,1.50X2.00*%
%ADD27R,1.50X2.00*%
G04:AMPARAMS|DCode=28|XSize=1.88mm|YSize=1.88mm|CornerRadius=0.47mm|HoleSize=0mm|Usage=FLASHONLY|Rotation=270.000|XOffset=0mm|YOffset=0mm|HoleType=Round|Shape=RoundedRectangle|*
%AMROUNDEDRECTD28*
21,1,1.88,0.94,0,0,270.0*
21,1,0.94,1.88,0,0,270.0*
1,1,0.94,-0.47,-0.47*
1,1,0.94,-0.47,0.47*
1,1,0.94,0.47,0.47*
1,1,0.94,0.47,-0.47*
%
%ADD28ROUNDEDRECTD28*%
%ADD29C,1.27*%
D13*
X1029Y2172D02*
Y3315D01*
X508Y1651D02*
X1029Y2172D01*
X635Y3150D02*
X965Y3480D01*
X635Y2299D02*
Y3150D01*
X495Y2159D02*
X635Y2299D01*
X495Y1905D02*
X914Y2324D01*
Y2819D01*
X3137Y1054D02*
X3429Y762D01*
Y216D02*
Y762D01*
X3531Y76D02*
X5321D01*
X3429Y178D02*
X3531Y76D01*
X3429Y178D02*
Y216D01*
X3238Y1537D02*
Y1791D01*
X3137Y1435D02*
X3238Y1537D01*
X3137Y1054D02*
Y1435D01*
X2246Y1508D02*
Y1805D01*
X425Y667D02*
X1405D01*
X2068Y1422D02*
Y1702D01*
X640Y732D02*
X1378D01*
X1833Y1279D02*
Y1685D01*
X1194Y889D02*
X1443D01*
X1549Y1156D02*
Y1943D01*
X1443Y889D02*
X1833Y1279D01*
X1378Y732D02*
X2068Y1422D01*
X1405Y667D02*
X2246Y1508D01*
X1472Y2119D02*
X1816Y2464D01*
X1472Y1637D02*
Y2119D01*
X1232Y1397D02*
X1472Y1637D01*
X1397Y1816D02*
Y2197D01*
X1232Y1651D02*
X1397Y1816D01*
X1549Y1943D02*
X1816Y2210D01*
X1397Y2197D02*
X1562Y2362D01*
X3378Y1422D02*
Y2311D01*
X3245Y1289D02*
X3378Y1422D01*
X3226Y1308D02*
X3245Y1289D01*
X2413Y3035D02*
X2438D01*
X2096Y2718D02*
X2413Y3035D01*
X5423Y2845D02*
X5766Y2502D01*
X3645Y2845D02*
X5423D01*
X3302Y3188D02*
X3645Y2845D01*
X3696Y2921D02*
X5601D01*
X3340Y3277D02*
X3696Y2921D01*
X5601D02*
X5766Y2756D01*
X3785Y2997D02*
X5791D01*
X3432Y3350D02*
X3785Y2997D01*
X965Y3480D02*
X3569D01*
X1129Y3415D02*
X3507D01*
X1029Y3315D02*
X1129Y3415D01*
X1915Y3350D02*
X3432D01*
X1232Y2667D02*
X1915Y3350D01*
X1968Y3277D02*
X3340D01*
X1435Y2743D02*
X1968Y3277D01*
X2019Y3188D02*
X3302D01*
X1562Y2731D02*
X2019Y3188D01*
X3569Y3480D02*
X3899Y3150D01*
X3507Y3415D02*
X3848Y3073D01*
X3289D02*
X3610Y2753D01*
X2731Y3073D02*
X3289D01*
X2311Y2654D02*
X2731Y3073D01*
X3899Y3150D02*
X5169D01*
X3848Y3073D02*
X5397D01*
X5169Y3150D02*
X5537Y3518D01*
X5397Y3073D02*
X5588Y3264D01*
X5791Y2997D02*
X5804Y3010D01*
X3610Y2753D02*
X5235D01*
X3548Y2688D02*
X5097D01*
X3289Y2946D02*
X3548Y2688D01*
X2756Y2946D02*
X3289D01*
X5537Y3518D02*
X5804D01*
X5588Y3264D02*
X5804D01*
X4031Y2558D02*
X4973D01*
X3899Y2426D02*
X4031Y2558D01*
X3378Y2311D02*
X3690Y2623D01*
X4973Y2558D02*
X5499Y2032D01*
X5032Y2623D02*
X5601Y2054D01*
X3690Y2623D02*
X5032D01*
X5097Y2688D02*
X5791Y1994D01*
X5235Y2753D02*
X5740Y2248D01*
X4915Y2489D02*
X5156Y2248D01*
X4432Y2489D02*
X4915D01*
X5321Y76D02*
X5436Y190D01*
X3226Y1308D02*
X3264D01*
X282Y810D02*
X425Y667D01*
X282Y810D02*
Y1298D01*
X483Y889D02*
X640Y732D01*
X282Y1298D02*
X381Y1397D01*
X394Y2921D02*
X432D01*
X381Y1397D02*
X432D01*
X663Y889D02*
X1194D01*
X432D02*
X483D01*
X1194Y2912D02*
Y2921D01*
X2311Y1359D02*
Y2654D01*
X2096Y1956D02*
X2246Y1805D01*
X1194Y2667D02*
X1232D01*
X3073Y1956D02*
X3238Y1791D01*
X5436Y190D02*
Y267D01*
X5346Y357D02*
X5436Y267D01*
X4776Y357D02*
X5346D01*
X4648Y485D02*
X4776Y357D01*
X5766Y2502D02*
X5804D01*
X2604Y2794D02*
X2756Y2946D01*
X5639Y838D02*
Y1651D01*
X5285Y485D02*
X5639Y838D01*
X5766Y1740D02*
X5804D01*
X5601Y1905D02*
X5766Y1740D01*
X5601Y1905D02*
Y2054D01*
X462Y1140D02*
X663Y889D01*
X432Y1143D02*
X462Y1140D01*
X1194Y1397D02*
X1232D01*
X1194Y1651D02*
X1232D01*
X5270Y1232D02*
X5486D01*
X5156Y1346D02*
X5270Y1232D01*
X5156Y1346D02*
Y2248D01*
X5499Y1791D02*
Y2032D01*
X5791Y1994D02*
X5804D01*
X5740Y2248D02*
X5804D01*
X1562Y2362D02*
Y2731D01*
X1435Y2400D02*
Y2743D01*
X1194Y2159D02*
X1435Y2400D01*
X4318Y2375D02*
X4432Y2489D01*
X5499Y1791D02*
X5639Y1651D01*
X432Y2159D02*
X495D01*
X432Y1905D02*
X495D01*
X432Y1651D02*
X508D01*
X2604Y2654D02*
Y2794D01*
X4318Y1715D02*
Y2375D01*
X2068Y1702D02*
X2096D01*
X1816D02*
X1833Y1685D01*
X5766Y2756D02*
X5804D01*
X3899Y2032D02*
Y2426D01*
X4318Y1715D02*
X4509Y1524D01*
X4534D01*
X2604Y2654D02*
X2794Y2464D01*
X3454Y1842D02*
X3645Y2032D01*
D14*
X2248Y356D02*
X2819Y927D01*
X425Y356D02*
X2248D01*
X51Y730D02*
X425Y356D01*
X2095Y445D02*
X2565Y914D01*
X443Y445D02*
X2095D01*
X126Y761D02*
X443Y445D01*
X2311Y965D02*
X2633Y1287D01*
Y1541D01*
X2794Y1702D01*
X2743Y1956D02*
X2794D01*
X2476Y2223D02*
X2743Y1956D01*
X509Y3557D02*
X3656D01*
X126Y3174D02*
X509Y3557D01*
X4559Y3632D02*
X4775Y3416D01*
X3656Y3557D02*
X3975Y3238D01*
X2794Y1702D02*
X2984Y1511D01*
Y724D02*
Y1511D01*
X2819Y559D02*
X2984Y724D01*
X2819Y165D02*
Y559D01*
X2565Y914D02*
Y927D01*
X126Y761D02*
Y3174D01*
X396Y597D02*
X1537D01*
X201Y792D02*
Y2728D01*
Y792D02*
X396Y597D01*
X201Y2728D02*
X394Y2921D01*
X2311Y927D02*
Y965D01*
X4044Y485D02*
X4394D01*
X3645Y884D02*
X4044Y485D01*
X3645Y884D02*
Y1016D01*
X4394Y485D02*
Y800D01*
X4318Y876D02*
Y1334D01*
Y876D02*
X4394Y800D01*
X4318Y1334D02*
X4509Y1524D01*
X51Y730D02*
Y3226D01*
X457Y3632D01*
X4559D01*
X3975Y3238D02*
X4915D01*
X5029Y3353D01*
Y3416D01*
D15*
X3454Y927D02*
Y1842D01*
X4155Y226D02*
X4394D01*
X3454Y927D02*
X4155Y226D01*
X5156Y485D02*
X5285D01*
D16*
X3429Y216D02*
D03*
X5029Y3416D02*
D03*
D17*
X3175Y216D02*
D03*
X4775Y3416D02*
D03*
D18*
X5804Y1486D02*
D03*
Y1232D02*
D03*
Y470D02*
D03*
Y724D02*
D03*
Y978D02*
D03*
Y2248D02*
D03*
Y1994D02*
D03*
Y1740D02*
D03*
Y2502D02*
D03*
Y2756D02*
D03*
Y3518D02*
D03*
Y3264D02*
D03*
Y3010D02*
D03*
X3899Y1778D02*
D03*
Y1524D02*
D03*
X3645Y1778D02*
D03*
Y1524D02*
D03*
X3899Y1270D02*
D03*
Y1016D02*
D03*
X3645Y1270D02*
D03*
Y2032D02*
D03*
X3899D02*
D03*
X4534Y1524D02*
D03*
Y1778D02*
D03*
X4788Y1524D02*
D03*
Y1778D02*
D03*
X4534Y2032D02*
D03*
Y2286D02*
D03*
X4788Y2032D02*
D03*
Y1270D02*
D03*
Y1016D02*
D03*
X4534Y1270D02*
D03*
Y1016D02*
D03*
D19*
X5804Y216D02*
D03*
X3645Y1016D02*
D03*
X4788Y2286D02*
D03*
D20*
X432Y3175D02*
D03*
Y2921D02*
D03*
Y2667D02*
D03*
Y2413D02*
D03*
Y2159D02*
D03*
Y1905D02*
D03*
Y1651D02*
D03*
Y1397D02*
D03*
Y1143D02*
D03*
Y889D02*
D03*
X1194Y3175D02*
D03*
Y2921D02*
D03*
Y2667D02*
D03*
Y2413D02*
D03*
Y2159D02*
D03*
Y1905D02*
D03*
Y1651D02*
D03*
Y1397D02*
D03*
Y1143D02*
D03*
D21*
Y889D02*
D03*
D22*
X5461Y978D02*
D03*
Y1232D02*
D03*
D23*
Y1486D02*
D03*
D24*
X5156Y485D02*
D03*
Y231D02*
D03*
X4902Y485D02*
D03*
Y231D02*
D03*
X4648Y485D02*
D03*
Y231D02*
D03*
X4394Y485D02*
D03*
D25*
Y231D02*
D03*
D26*
X2819Y927D02*
D03*
X2565D02*
D03*
X2311D02*
D03*
X2057D02*
D03*
X2819Y165D02*
D03*
X2565D02*
D03*
X2311D02*
D03*
D27*
X2057D02*
D03*
D28*
X1816Y2718D02*
D03*
X2096D02*
D03*
X1816Y2464D02*
D03*
X2096D02*
D03*
X1816Y2210D02*
D03*
X2096D02*
D03*
X1816Y1956D02*
D03*
X2096D02*
D03*
X1816Y1702D02*
D03*
X2096D02*
D03*
X3073D02*
D03*
X2794D02*
D03*
X3073Y1956D02*
D03*
X2794D02*
D03*
X3073Y2210D02*
D03*
X2794D02*
D03*
X3073Y2464D02*
D03*
X2794D02*
D03*
X3073Y2718D02*
D03*
X2794D02*
D03*
D29*
X914Y2819D02*
D03*
X2476Y2223D02*
D03*
X1549Y1156D02*
D03*
X3264Y1308D02*
D03*
X1537Y597D02*
D03*
X2311Y1359D02*
D03*
X2438Y3035D02*
D03*
M02*
